<svg width="20" height="21" viewBox="0 0 20 21" fill="none" xmlns="http://www.w3.org/2000/svg">
<path d="M9.99999 2.16663C5.40832 2.16663 1.66666 5.90829 1.66666 10.5C1.66666 15.0916 5.40832 18.8333 9.99999 18.8333C14.5917 18.8333 18.3333 15.0916 18.3333 10.5C18.3333 5.90829 14.5917 2.16663 9.99999 2.16663ZM13.625 13.475C13.5083 13.675 13.3 13.7833 13.0833 13.7833C12.975 13.7833 12.8667 13.7583 12.7667 13.6916L10.1833 12.15C9.54166 11.7666 9.06666 10.925 9.06666 10.1833V6.76663C9.06666 6.42496 9.34999 6.14163 9.69166 6.14163C10.0333 6.14163 10.3167 6.42496 10.3167 6.76663V10.1833C10.3167 10.4833 10.5667 10.925 10.825 11.075L13.4083 12.6166C13.7083 12.7916 13.8083 13.175 13.625 13.475Z" fill="white"/>
</svg>
